<?xml version="1.0" standalone="no"?>
<!DOCTYPE svg PUBLIC "-//W3C//DTD SVG 20010904//EN"
 "http://www.w3.org/TR/2001/REC-SVG-20010904/DTD/svg10.dtd">
<svg version="1.0" xmlns="http://www.w3.org/2000/svg"
 width="64.000000pt" height="64.000000pt" viewBox="0 0 64.000000 64.000000"
 preserveAspectRatio="xMidYMid meet">

<g transform="translate(0.000000,64.000000) scale(0.100000,-0.100000)"
fill="#000000" stroke="none">
<path d="M170 490 c-13 -24 -5 -41 52 -117 l39 -52 -50 -69 c-53 -73 -59 -90
-39 -110 24 -24 48 -11 94 50 25 35 47 64 49 66 1 1 22 -23 45 -55 24 -32 48
-61 54 -65 20 -14 45 -8 56 12 13 24 4 43 -52 113 -21 27 -38 53 -38 57 0 5
23 39 51 76 52 68 57 89 27 108 -25 15 -45 1 -91 -65 -21 -30 -41 -55 -45 -56
-4 -2 -26 27 -50 62 -33 51 -48 65 -67 65 -14 0 -29 -8 -35 -20z"/>
</g>
</svg>
